<svg xmlns="http://www.w3.org/2000/svg" width="100" height="100" viewBox="0 0 24 24" fill="none">
  <!-- Outer Ring -->
  <circle cx="12" cy="12" r="10" fill="#f1faee" stroke="#e63946" stroke-width="2"/>

  <!-- Central Hexagon Symbolizing Blockchain -->
  <polygon points="12,4 16,8 16,16 12,20 8,16 8,8" fill="#e63946" />

  <!-- Stylized "B" inside the hexagon -->
  <path d="M10 8h3c1.5 0 2.5 1 2.5 2.5S14.5 13 13 13H10V8z" fill="#f1faee"/>
  <path d="M10 13h3.5c1.5 0 2.5 1 2.5 2.5S15 18 13.5 18H10v-5z" fill="#f1faee"/>

  <!-- Bitcoin Symbol within the hexagon -->
  <circle cx="12" cy="12" r="1.5" fill="#f1faee"/>
  <line x1="11" y1="9" x2="13" y2="15" stroke="#f1faee" stroke-width="1.5"/>
  <line x1="13" y1="9" x2="11" y2="15" stroke="#f1faee" stroke-width="1.5"/>

  <!-- Node Dots -->
  <circle cx="6" cy="6" r="1" fill="#e63946"/>
  <circle cx="18" cy="6" r="1" fill="#e63946"/>
  <circle cx="18" cy="18" r="1" fill="#e63946"/>
  <circle cx="6" cy="18" r="1" fill="#e63946"/>
</svg>
